<?xml version="1.0" encoding="iso-8859-1"?>
<!-- Generator: Adobe Illustrator 19.0.0, SVG Export Plug-In . SVG Version: 6.00 Build 0)  -->
<svg xmlns="http://www.w3.org/2000/svg" xmlns:xlink="http://www.w3.org/1999/xlink" version="1.1" id="Layer_1" x="0px" y="0px" viewBox="0 0 512.035 512.035" style="enable-background:new 0 0 512.035 512.035;" xml:space="preserve" width="512px" height="512px">
<g transform="translate(1 1)">
	<g>
		<g>
			<path d="M455.616-0.965c-28.16,0-51.2,23.04-51.2,51.2c0,28.16,23.04,51.2,51.2,51.2c28.16,0,51.2-23.04,51.2-51.2     C506.816,22.075,483.776-0.965,455.616-0.965z M455.616,84.368c-18.773,0-34.133-15.36-34.133-34.133s15.36-34.133,34.133-34.133     c18.773,0,34.133,15.36,34.133,34.133S474.39,84.368,455.616,84.368z" fill="#FFFFFF"/>
			<path d="M427.456,114.235c-30.72-7.68-62.293,8.533-72.533,38.4L307.99,289.168c-1.707,5.12-7.68,8.533-12.8,7.68l-86.187-10.24     c-12.8-1.707-24.747,5.973-28.16,17.92L123.67,469.221c-2.56,11.093,0,22.187,7.68,29.867s17.067,11.947,26.453,11.947     c3.413,0,5.973,0,8.533-0.853c11.947-3.413,21.333-11.947,24.747-23.04l47.787-116.907c0.853-4.267,5.12-6.827,9.387-5.973     l128.853,17.92c13.653,1.707,27.307-6.827,31.573-19.627l58.88-171.52c5.973-15.36,4.267-32.427-3.413-46.933     C456.47,129.595,443.67,118.501,427.456,114.235z M452.203,184.208l-58.88,171.52c-1.707,5.12-6.827,8.533-12.8,7.68     l-128.853-17.92c-12.8-1.707-24.747,5.973-28.16,17.067l-48.64,118.613c-1.707,5.973-6.827,10.24-12.8,11.947     c-6.827,1.707-12.8,0-18.773-5.973c-3.413-2.56-4.267-8.533-3.413-12.8l57.173-165.547c0.853-3.413,4.267-5.973,8.533-5.973     c0,0,0.853,0,1.707-0.853l86.187,10.24c13.653,1.707,26.453-6.827,30.72-19.627l46.933-136.533     c7.68-21.333,30.72-33.28,52.053-27.307c11.947,3.413,20.48,11.093,26.453,21.333     C454.763,161.168,456.47,173.115,452.203,184.208z" fill="#FFFFFF"/>
			<path d="M97.216,127.035h128v34.133c0,3.413,1.707,6.827,5.12,7.68c0.853,0.853,2.56,0.853,3.413,0.853     c2.56,0,4.267-0.853,5.973-2.56l76.8-76.8c3.413-3.413,3.413-8.533,0-11.947l-76.8-76.8c-2.56-2.56-5.973-3.413-9.387-1.707     c-3.413,0.853-5.12,4.267-5.12,7.68v34.133h-128c-5.12,0-8.533,3.413-8.533,8.533v68.267     C88.683,123.621,92.096,127.035,97.216,127.035z M105.75,58.768h128c5.12,0,8.533-3.413,8.533-8.533V28.048l56.32,56.32     l-56.32,56.32v-22.187c0-5.12-3.413-8.533-8.533-8.533h-128V58.768z" fill="#FFFFFF"/>
			<path d="M115.99,264.421c-0.146-0.146-0.261-0.322-0.365-0.509c8.145,0.202,16.306,0.646,24.478,1.318     c0.159,0.32,0.347,0.61,0.634,0.898v0.853c0.853,1.707,1.707,3.413,2.56,5.12c2.56,5.12,5.12,11.093,5.12,17.067     c0,11.947-11.093,24.747-14.507,28.16s-3.413,8.533,0,11.947c1.707,1.707,3.413,2.56,5.973,2.56c1.707,0,4.267-0.853,6.827-2.56     c0.853-0.853,19.627-18.773,19.627-40.107c0-8.665-3.055-16.101-6.063-21.805c9.695,1.253,19.399,2.827,29.103,4.738     c2.56,0,5.12,0,6.827-1.707c1.707-1.707,3.413-3.413,3.413-5.973l8.533-85.333c0-4.267-2.56-8.533-6.827-9.387     c-52.053-11.947-137.387-11.947-191.147,0c-4.267,0.853-7.68,5.12-6.827,9.387l8.533,85.333c0,2.56,1.707,4.267,3.413,5.973     c1.707,0.853,3.413,1.707,5.12,1.707c0.853,0,0.853,0,1.707,0c11.028-2.24,22.127-4.02,33.28-5.355v0.235     c0.853,1.707,1.707,3.413,2.56,5.12c2.56,5.12,5.12,11.093,5.12,17.067c0,11.947-10.24,24.747-14.507,28.16     c-3.413,3.413-3.413,8.533,0,11.947c1.707,1.707,3.413,2.56,5.973,2.56c1.707,0,4.267-0.853,5.973-2.56     c0.853-0.853,19.627-18.773,19.627-40.107c0-9.902-3.987-18.2-7.337-24.139c7.924-0.612,15.872-0.995,23.839-1.155     c0.322,0.802,0.868,1.704,1.418,2.254v0.853c0.853,1.707,1.707,3.413,2.56,5.12c2.56,5.12,5.12,11.093,5.12,17.067     c0,11.947-10.24,24.747-14.507,28.16c-3.413,3.413-3.413,8.533,0,11.947c1.707,1.707,3.413,2.56,5.973,2.56     c1.707,0,4.267-0.853,6.827-2.56c0.853-0.853,19.627-18.773,19.627-40.107C123.67,278.928,119.403,270.395,115.99,264.421z      M21.27,185.061c48.64-9.387,121.173-9.387,168.96,0l-6.827,68.267c-10.902-1.758-21.659-3.221-32.39-4.34     c-1.591-3.533-2.597-7.277-2.597-11.02c0-5.973,2.56-11.947,5.12-17.067c0.853-1.707,1.707-3.413,2.56-5.12     c1.707-4.267,0-9.387-4.267-11.093c-4.267-1.707-9.387,0-11.093,4.267c0,1.707-0.853,2.56-1.707,4.267     c-3.413,5.973-7.68,14.507-7.68,24.747c0,3.344,0.46,6.501,1.192,9.451c-8.352-0.543-16.732-0.852-25.192-0.903     c-1-2.786-1.6-5.667-1.6-8.548c0-5.973,2.56-11.947,5.12-17.067c0.853-1.707,1.707-3.413,2.56-5.12     c1.707-4.267,0-9.387-4.267-11.093c-4.267-1.707-9.387,0-11.093,4.267c0,1.707-0.853,2.56-1.707,4.267     c-3.413,5.973-7.68,14.507-7.68,24.747c0,3.11,0.397,6.059,1.041,8.83c-8.097,0.309-16.194,0.858-24.291,1.619     c-1.445-3.365-2.35-6.906-2.35-10.45c0-5.973,2.56-11.947,5.12-17.067c0.853-1.707,1.707-3.413,2.56-5.12     c1.707-4.267,0-9.387-4.267-11.093c-4.267-1.707-9.387,0-11.093,4.267c0,1.707-0.853,2.56-1.707,4.267     c-3.413,5.973-7.68,14.507-7.68,24.747c0,4.484,0.818,8.641,2.025,12.399c-6.648,0.863-13.297,1.853-19.945,2.961L21.27,185.061z     " fill="#FFFFFF"/>
		</g>
	</g>
</g>
<g>
</g>
<g>
</g>
<g>
</g>
<g>
</g>
<g>
</g>
<g>
</g>
<g>
</g>
<g>
</g>
<g>
</g>
<g>
</g>
<g>
</g>
<g>
</g>
<g>
</g>
<g>
</g>
<g>
</g>
</svg>
