<?xml version="1.0" encoding="iso-8859-1"?>
<!-- Generator: Adobe Illustrator 19.0.0, SVG Export Plug-In . SVG Version: 6.00 Build 0)  -->
<svg xmlns="http://www.w3.org/2000/svg" xmlns:xlink="http://www.w3.org/1999/xlink" version="1.1" id="Layer_1" x="0px" y="0px" viewBox="0 0 512 512" style="enable-background:new 0 0 512 512;" xml:space="preserve" width="512px" height="512px">
<g transform="translate(1 1)">
	<g>
		<g>
			<path d="M43.373,417.56c-13.653,13.653-13.653,34.987,0,48.64c6.827,6.827,15.36,10.24,23.893,10.24s17.067-3.413,24.747-10.24     c13.653-13.653,13.653-34.987,0-48.64C78.36,403.907,57.027,403.907,43.373,417.56z M79.213,454.253     c-6.827,6.827-17.067,6.827-23.893,0s-6.827-17.067,0-23.893c3.413-3.413,7.68-5.12,11.947-5.12s8.533,1.707,11.947,5.12     C86.04,437.187,86.04,447.427,79.213,454.253z" fill="#FFFFFF"/>
			<path d="M508.44,37.827L472.6,1.987c-3.413-3.413-8.533-3.413-11.947,0l-17.92,17.92l-6.827-6.827     c-3.413-3.413-8.533-3.413-11.947,0l-23.893,23.893c-1.707,1.707-2.56,3.413-2.56,5.973s0.853,4.267,2.56,5.973l12.373,12.373     l-92.16,92.16l-42.24-42.24c-3.413-3.413-8.533-3.413-11.947,0L242.2,135.107c-3.413,3.413-3.413,8.533,0,11.947l23.55,23.384     l-12.02,12.02c-7.662-8.235-18.552-12.363-29.45-12.363c-11.093,0-22.187,5.12-29.867,12.8c-3.413,3.413-3.413,8.533,0,11.947     s8.533,3.413,11.947,0c9.244-9.243,25.919-9.364,35.389-0.403l-35.806,35.806c-7.662-8.235-18.552-12.363-29.45-12.363     c-11.093,0-22.187,5.12-29.867,12.8c-3.413,3.413-3.413,8.533,0,11.947s8.533,3.413,11.947,0     c9.243-9.243,25.919-9.364,35.389-0.403l-36.659,36.659c-7.662-8.236-18.552-12.363-29.45-12.363     c-11.093,0-22.187,5.12-29.867,12.8c-0.145,0.145-0.274,0.296-0.407,0.447c-0.15,0.132-0.302,0.262-0.447,0.407L73.24,304.067     c-3.413,3.413-3.413,8.533,0,11.947l23.978,23.809l-34.375,34.375c-16.293,1.03-31.692,7.728-44.217,19.47     C5.827,407.32-1,424.387-1,442.307s6.827,34.987,19.627,48.64c13.653,12.8,30.72,19.627,48.64,19.627s34.987-6.827,48.64-19.627     c11.785-12.571,18.491-27.318,19.483-44.229l34.618-34.618l24.406,24.234c1.707,1.707,3.413,2.56,5.973,2.56     c1.707,0,4.267-0.853,5.12-2.56L229.4,412.44c3.413-3.413,3.413-8.533,0-11.947l-24.32-24.32l12.8-12.8l0.427,0.427     c7.68,8.533,18.773,12.8,29.867,12.8s22.187-4.267,29.867-12.8c3.413-3.413,3.413-8.533,0-11.947s-8.533-3.413-11.947,0     c-9.387,10.24-25.6,10.24-35.84,0l-0.427-0.427l36.693-36.693l0.427,0.427c7.68,8.533,18.773,12.8,29.867,12.8     s22.187-4.267,29.867-12.8c3.413-3.413,3.413-8.533,0-11.947c-3.413-3.413-8.533-3.413-11.947,0     c-9.387,9.387-26.453,9.387-35.84,0l-0.427-0.427l35.84-35.84l0.427,0.427c7.68,8.533,18.773,12.8,29.867,12.8     c10.45,0,20.896-3.789,28.493-11.361c0.586-0.383,1.083-0.858,1.373-1.439c0,0,0,0,0,0c0,0,0,0,0.001-0.001l23.893-23.893     c3.413-3.413,3.413-8.533,0-11.947l-42.24-42.24l92.16-92.16l12.373,12.373c1.707,1.707,3.413,2.56,5.973,2.56     c1.707,0,4.267-0.853,5.973-2.56l23.893-23.893c1.707-1.707,2.56-3.413,2.56-5.973s-0.853-4.267-2.56-5.973l-5.973-5.973     l17.92-17.92C511.853,46.36,511.853,41.24,508.44,37.827z M327.407,231.66l-12.247,12.247l-48.64-48.64l12.075-12.075     L327.407,231.66z M103.107,478.147c-9.387,10.24-22.187,15.36-35.84,15.36s-26.453-5.12-35.84-15.36     c-10.24-9.387-15.36-22.187-15.36-35.84s5.12-26.453,15.36-35.84c9.291-10.136,21.928-15.247,35.426-15.35     c14.325,0.103,26.963,5.214,36.254,15.35c10.125,9.282,15.236,22.735,15.349,36.235     C118.342,456.206,112.402,468.851,103.107,478.147z M133.827,425.24c-0.68-2.38-1.466-4.689-2.349-6.933     c-3.283-9.223-8.513-17.583-15.571-24.64c-8.958-8.399-19.392-14.206-30.566-17.221l24.294-24.294l48.812,48.468L133.827,425.24z      M199.533,417.56L91.16,309.187l11.947-11.947L127,321.133c0,0,0,0,0,0.001l60.587,60.587c0,0,0,0,0,0l23.893,23.893     L199.533,417.56z M115.897,286.991c9.352-4.692,21.751-3.388,29.425,3.873l-12.776,12.776L115.897,286.991z M194.413,364.653     l-48.64-48.64l12.373-12.373l48.64,48.64L194.413,364.653z M218.733,340.333l-48.64-48.64L206.787,255l48.64,48.64     L218.733,340.333z M267.373,291.693l-48.64-48.64l35.84-35.84l48.64,48.64L267.373,291.693z M326.68,255.427L326.253,255     l12.286-12.286l17.705,17.581C346.95,265.259,334.894,263.641,326.68,255.427z M368.493,248.6L260.12,140.227l11.947-11.947     l42.666,42.666c0,0,0,0,0.001,0.001l23.893,23.893c0,0,0,0,0,0l41.813,41.813L368.493,248.6z M344.6,176.92l-11.947-11.947     l91.307-91.307l11.947,11.947L344.6,176.92z M466.627,91.587l-48.64-48.64L429.933,31l6.827,6.827c0,0,0,0,0,0l19.115,19.115     l22.699,22.699L466.627,91.587z M453.827,31l11.947-11.947l23.893,23.893L477.72,54.893L453.827,31z" fill="#FFFFFF"/>
		</g>
	</g>
</g>
<g>
</g>
<g>
</g>
<g>
</g>
<g>
</g>
<g>
</g>
<g>
</g>
<g>
</g>
<g>
</g>
<g>
</g>
<g>
</g>
<g>
</g>
<g>
</g>
<g>
</g>
<g>
</g>
<g>
</g>
</svg>
