<?xml version="1.0" encoding="iso-8859-1"?>
<!-- Generator: Adobe Illustrator 19.0.0, SVG Export Plug-In . SVG Version: 6.00 Build 0)  -->
<svg xmlns="http://www.w3.org/2000/svg" xmlns:xlink="http://www.w3.org/1999/xlink" version="1.1" id="Layer_1" x="0px" y="0px" viewBox="0 0 503.621 503.621" style="enable-background:new 0 0 503.621 503.621;" xml:space="preserve" width="512px" height="512px">
<g transform="translate(1 1)">
	<g>
		<path d="M477.484,121.104l-65.707-17.92c-5.581-1.395-11.162-2.774-16.743-3.237l-1.177-1.883    c-5.973-9.387-11.947-18.773-17.067-29.013l-15.36-30.72c-1.707-3.413-4.267-5.12-7.68-5.12s-5.973,1.707-8.533,4.267    L333.27,62.224c-3.963,8.493-8.308,17.36-13.522,25.856c-77.371-7.671-153.931-2.377-229.678,15.104l-65.707,17.92    c-17.067,5.12-28.16,22.187-24.747,39.253L46.55,410.384c0.853,2.56,1.707,5.12,4.267,5.973c1.707,0.853,2.56,0.853,4.267,0.853    c0.853,0,1.707,0,3.413,0c53.871-19.187,110.136-30.07,166.724-32.664l6.889,21.584c-8.975,6.166-14.892,16.497-14.892,28.147    c0,18.773,15.36,34.133,34.133,34.133c18.773,0,34.133-15.36,34.133-34.133c0-18.773-15.36-34.133-34.133-34.133    c-1.007,0-2.002,0.053-2.988,0.14l-5.196-16.281c68.357-1.015,136.867,10.049,201.89,33.208c1.707,0.853,4.267,0,6.827-0.853    c2.56-1.707,3.413-3.413,4.267-5.973l46.08-250.027C504.79,143.29,494.55,125.37,477.484,121.104z M268.417,434.277    c0,9.387-7.68,17.067-17.067,17.067c-9.387,0-17.067-7.68-17.067-17.067s7.68-17.067,17.067-17.067    C260.737,417.21,268.417,424.89,268.417,434.277z M349.484,69.904l4.267-9.387l7.68,15.36c5.12,11.093,11.947,20.48,17.92,30.72    l1.794,2.69c0.271,1.516,0.859,2.996,1.62,4.136c3.413,5.12,5.12,10.24,5.12,15.36c0,9.269-4.203,17.831-10.694,24.436    c-0.41,0.395-0.826,0.785-1.252,1.164c-8.533,6.827-18.773,9.387-29.013,6.827c-16.213-3.413-27.307-18.773-26.453-35.84    c0-5.12,1.707-9.387,5.12-13.653C334.977,98.064,342.657,83.557,349.484,69.904z M486.017,156.944L440.79,396.73    c-61.44-20.48-125.44-30.72-189.44-30.72c-4.623,0-9.246,0.065-13.868,0.18l-63.785-199.86c-1.707-4.267-6.827-6.827-11.093-5.12    s-6.827,6.827-5.12,11.093l62.112,194.617c-53.353,3.025-106.41,13.572-157.685,30.664L16.684,157.797    c-1.707-8.533,3.413-17.067,11.947-19.627l65.707-17.92c70.484-16.135,141.814-21.279,213.988-15.442    c-2.156,3.738-3.661,7.71-4.637,11.913c-0.519,1.938-0.87,3.941-1.032,6.009c-0.036,0.311-0.074,0.62-0.106,0.933    c-0.108,1.624-0.139,3.237-0.099,4.836c-0.036,13.179,5.433,25.434,14.293,34.519c0.189,0.198,0.379,0.395,0.571,0.589    c0.073,0.072,0.146,0.144,0.22,0.216c6.707,6.711,15.307,11.569,25.122,13.599c16.213,3.413,31.573-0.853,43.52-10.24    c11.947-10.24,18.773-24.747,18.773-40.107c0-2.387-0.009-5.506-0.701-7.993c-0.033-0.179-0.062-0.358-0.097-0.536    c1.668,0.019,2.524,0.85,4.211,0.85l65.707,17.92C482.604,139.877,487.724,148.41,486.017,156.944z" fill="#FFFFFF"/>
	</g>
</g>
<g>
</g>
<g>
</g>
<g>
</g>
<g>
</g>
<g>
</g>
<g>
</g>
<g>
</g>
<g>
</g>
<g>
</g>
<g>
</g>
<g>
</g>
<g>
</g>
<g>
</g>
<g>
</g>
<g>
</g>
</svg>
